<svg xmlns="http://www.w3.org/2000/svg" viewBox="0 0 64 64" role="img" aria-label="Baby's Plan">
  <rect width="64" height="64" rx="14" fill="#FAFAF8"/>
  <g transform="translate(7.5, 4) scale(0.49)">
    <!-- Left adult figure (coral) -->
    <circle cx="27" cy="13" r="8" fill="#F28C82"/>
    <path d="M27 21 C13 30 11 52 27 62 C34 67 42 70 48 73"
          stroke="#F28C82" stroke-width="13" stroke-linecap="round" fill="none"/>
    <!-- Right adult figure (teal) -->
    <circle cx="73" cy="13" r="8" fill="#4FB6AC"/>
    <path d="M73 21 C87 30 89 52 73 62 C66 67 58 70 52 73"
          stroke="#4FB6AC" stroke-width="13" stroke-linecap="round" fill="none"/>
    <!-- Child figure (teal) -->
    <circle cx="50" cy="37" r="5.5" fill="#4FB6AC"/>
    <path d="M50 43 C50 52 50 59 50 64"
          stroke="#4FB6AC" stroke-width="9" stroke-linecap="round" fill="none"/>
    <!-- Journey path (teal) -->
    <path d="M10 85 C22 77 33 89 50 83 C67 77 78 89 90 83"
          stroke="#4FB6AC" stroke-width="4.5" stroke-linecap="round" fill="none"/>
  </g>
</svg>
